<?xml version="1.0" standalone="no"?>
<!DOCTYPE svg PUBLIC "-//W3C//DTD SVG 20010904//EN"
 "http://www.w3.org/TR/2001/REC-SVG-20010904/DTD/svg10.dtd">
<svg version="1.0" xmlns="http://www.w3.org/2000/svg"
 width="269.000000pt" height="269.000000pt" viewBox="0 0 269.000000 269.000000"
 preserveAspectRatio="xMidYMid meet">
<metadata>
Created by potrace 1.11, written by Peter Selinger 2001-2013
</metadata>
<g transform="translate(0.000000,269.000000) scale(0.100000,-0.100000)"
fill="#000000" stroke="none">
<path d="M1095 2651 c-99 -23 -143 -39 -220 -82 -192 -105 -345 -279 -413
-469 -41 -115 -47 -153 -47 -310 0 -157 6 -195 47 -310 53 -150 168 -302 298
-397 173 -126 334 -176 555 -172 147 3 236 24 362 85 88 43 159 92 231 158 41
37 142 169 142 185 0 6 5 11 10 11 6 0 10 4 10 10 0 5 11 33 24 62 61 135 77
214 77 369 0 125 -5 160 -38 269 -32 103 -158 317 -204 345 -5 4 -6 11 -3 17
4 6 2 8 -4 4 -6 -3 -20 6 -31 20 -12 15 -21 24 -21 20 0 -7 -61 35 -87 60 -24
23 -200 103 -263 119 -100 27 -323 30 -425 6z"/>
<path d="M1634 672 c-20 -13 -32 -47 -24 -67 19 -52 70 -58 103 -14 16 23 17
30 7 50 -16 29 -29 39 -55 39 -11 0 -25 -4 -31 -8z"/>
<path d="M1282 660 c-19 -4 -38 -12 -44 -18 -13 -13 -2 -32 18 -32 12 0 14
-30 14 -181 0 -161 -2 -183 -17 -195 -17 -13 -17 -15 -1 -27 9 -7 29 -12 45
-11 15 1 45 3 66 3 29 1 37 5 37 20 0 10 -7 21 -15 25 -11 4 -15 20 -15 56 0
28 4 49 8 46 4 -3 21 -30 36 -61 38 -73 70 -99 116 -91 19 4 73 6 119 5 59 0
86 3 92 13 13 19 11 28 -6 28 -20 0 -25 26 -28 165 l-2 120 -44 -3 c-24 -1
-52 -7 -62 -13 -23 -12 -25 -37 -4 -45 12 -5 15 -27 15 -115 0 -98 -2 -109
-18 -109 -27 0 -48 20 -72 67 -12 24 -33 51 -47 61 l-25 18 49 45 c27 25 55
48 63 51 8 2 11 11 7 21 -5 14 -20 17 -82 17 -68 0 -75 -2 -75 -20 0 -10 8
-23 18 -29 15 -9 14 -13 -18 -46 l-35 -36 -5 138 -5 138 -25 2 c-14 1 -40 -2
-58 -7z"/>
<path d="M236 604 c-10 -25 -7 -31 14 -37 19 -5 20 -14 20 -155 0 -142 -1
-150 -22 -164 -13 -9 -19 -20 -15 -30 8 -23 161 -35 235 -18 62 14 111 54 113
92 4 72 -8 100 -49 117 l-29 12 28 29 c34 33 39 82 13 119 -28 39 -73 51 -193
51 -90 0 -110 -3 -115 -16z m204 -54 c40 -40 11 -110 -45 -110 -24 0 -25 2
-25 65 0 63 1 65 25 65 14 0 34 -9 45 -20z m12 -187 c44 -40 10 -113 -54 -113
-28 0 -28 0 -28 71 l0 72 32 -7 c17 -3 40 -14 50 -23z"/>
<path d="M710 522 c-72 -19 -110 -77 -110 -167 0 -75 23 -121 71 -145 112 -58
224 21 222 157 -1 107 -87 180 -183 155z m64 -75 c10 -37 7 -167 -4 -188 -15
-27 -39 -24 -50 7 -16 42 -13 180 5 198 19 19 41 11 49 -17z"/>
<path d="M1025 520 c-88 -27 -134 -157 -87 -250 50 -101 200 -106 256 -9 27
46 28 152 2 195 -33 55 -108 83 -171 64z m78 -100 c11 -60 2 -150 -17 -169
-15 -14 -18 -14 -33 2 -13 13 -17 35 -18 100 0 98 7 120 37 115 18 -2 24 -12
31 -48z"/>
<path d="M1835 523 c-69 -15 -99 -48 -55 -60 18 -5 20 -14 20 -114 0 -92 -2
-109 -16 -109 -9 0 -14 -7 -12 -17 3 -15 16 -19 77 -21 53 -2 77 1 82 10 13
19 11 28 -6 28 -20 0 -26 32 -23 124 3 83 16 106 52 93 13 -5 16 -24 16 -117
0 -97 2 -112 20 -130 17 -17 28 -19 58 -14 20 3 44 13 52 21 13 13 13 15 -2
24 -15 8 -18 25 -18 108 0 123 -11 156 -55 171 -37 12 -81 5 -107 -18 -16 -14
-18 -13 -18 0 0 9 -7 19 -16 22 -16 6 -17 6 -49 -1z"/>
<path d="M2297 521 c-107 -6 -109 -6 -138 -39 -38 -43 -40 -98 -4 -140 17 -20
22 -33 15 -37 -6 -4 -10 -22 -9 -39 2 -22 -4 -42 -19 -61 -23 -30 -25 -37 -16
-72 23 -85 232 -84 287 1 41 62 3 116 -95 136 -92 18 -99 23 -38 30 92 10 126
46 118 124 -5 41 -3 46 14 46 15 0 19 6 16 27 -4 32 3 30 -131 24z m1 -102 c2
-33 -2 -51 -14 -63 -25 -26 -44 -3 -44 54 0 53 6 62 35 58 16 -2 21 -12 23
-49z m2 -229 c36 -9 35 -51 -2 -64 -38 -13 -78 14 -78 54 0 33 -4 32 80 10z"/>
</g>
</svg>
